<mxfile host="app.diagrams.net" modified="2023-01-15T19:32:10.257Z" agent="5.0 (Windows NT 10.0; Win64; x64) AppleWebKit/537.36 (KHTML, like Gecko) Chrome/109.0.0.0 Safari/537.36" version="20.7.4" etag="u6cFrPVymJgNBl9D5_qN" type="github">
  <diagram id="1MgJISd5AUzZ8WsTB6ZX" name="第 1 页">
    <mxGraphModel dx="2261" dy="788" grid="1" gridSize="10" guides="1" tooltips="1" connect="1" arrows="1" fold="1" page="1" pageScale="1" pageWidth="827" pageHeight="1169" math="0" shadow="0">
      <root>
        <mxCell id="0" />
        <mxCell id="1" parent="0" />
        <mxCell id="kYznNl6-blw-eItZ_B57-21" value="" style="rounded=0;whiteSpace=wrap;html=1;dashed=1;" vertex="1" parent="1">
          <mxGeometry x="180" y="340" width="300" height="200" as="geometry" />
        </mxCell>
        <mxCell id="kYznNl6-blw-eItZ_B57-2" value="meta cache" style="rounded=0;whiteSpace=wrap;html=1;" vertex="1" parent="1">
          <mxGeometry x="280" y="620" width="140" height="50" as="geometry" />
        </mxCell>
        <mxCell id="kYznNl6-blw-eItZ_B57-20" style="edgeStyle=orthogonalEdgeStyle;rounded=0;orthogonalLoop=1;jettySize=auto;html=1;exitX=1;exitY=0.5;exitDx=0;exitDy=0;" edge="1" parent="1" source="kYznNl6-blw-eItZ_B57-4">
          <mxGeometry relative="1" as="geometry">
            <mxPoint x="520" y="390" as="targetPoint" />
          </mxGeometry>
        </mxCell>
        <mxCell id="kYznNl6-blw-eItZ_B57-4" value="ones-worker" style="rounded=0;whiteSpace=wrap;html=1;" vertex="1" parent="1">
          <mxGeometry x="290" y="360" width="130" height="60" as="geometry" />
        </mxCell>
        <mxCell id="kYznNl6-blw-eItZ_B57-6" value="wxim" style="ellipse;shape=cloud;whiteSpace=wrap;html=1;" vertex="1" parent="1">
          <mxGeometry x="520" y="438" width="120" height="80" as="geometry" />
        </mxCell>
        <mxCell id="kYznNl6-blw-eItZ_B57-18" style="edgeStyle=orthogonalEdgeStyle;rounded=0;orthogonalLoop=1;jettySize=auto;html=1;" edge="1" parent="1" source="kYznNl6-blw-eItZ_B57-3" target="kYznNl6-blw-eItZ_B57-6">
          <mxGeometry relative="1" as="geometry" />
        </mxCell>
        <mxCell id="kYznNl6-blw-eItZ_B57-3" value="wxim-worker" style="rounded=0;whiteSpace=wrap;html=1;" vertex="1" parent="1">
          <mxGeometry x="290" y="448" width="130" height="60" as="geometry" />
        </mxCell>
        <mxCell id="kYznNl6-blw-eItZ_B57-14" style="edgeStyle=orthogonalEdgeStyle;rounded=0;orthogonalLoop=1;jettySize=auto;html=1;exitX=0.5;exitY=0;exitDx=0;exitDy=0;exitPerimeter=0;" edge="1" parent="1" source="kYznNl6-blw-eItZ_B57-9" target="kYznNl6-blw-eItZ_B57-3">
          <mxGeometry relative="1" as="geometry" />
        </mxCell>
        <mxCell id="kYznNl6-blw-eItZ_B57-15" style="edgeStyle=orthogonalEdgeStyle;rounded=0;orthogonalLoop=1;jettySize=auto;html=1;exitX=0.5;exitY=0;exitDx=0;exitDy=0;exitPerimeter=0;entryX=0;entryY=0.5;entryDx=0;entryDy=0;" edge="1" parent="1" source="kYznNl6-blw-eItZ_B57-9" target="kYznNl6-blw-eItZ_B57-4">
          <mxGeometry relative="1" as="geometry" />
        </mxCell>
        <mxCell id="kYznNl6-blw-eItZ_B57-9" value="" style="shape=cylinder3;whiteSpace=wrap;html=1;boundedLbl=1;backgroundOutline=1;size=15;rotation=90;" vertex="1" parent="1">
          <mxGeometry x="20" y="340" width="60" height="160" as="geometry" />
        </mxCell>
        <mxCell id="kYznNl6-blw-eItZ_B57-10" value="MQ" style="text;html=1;strokeColor=none;fillColor=none;align=center;verticalAlign=middle;whiteSpace=wrap;rounded=0;" vertex="1" parent="1">
          <mxGeometry x="10" y="410" width="60" height="30" as="geometry" />
        </mxCell>
        <mxCell id="kYznNl6-blw-eItZ_B57-17" value="" style="shape=flexArrow;endArrow=classic;startArrow=classic;html=1;rounded=0;" edge="1" parent="1">
          <mxGeometry width="100" height="100" relative="1" as="geometry">
            <mxPoint x="350" y="610" as="sourcePoint" />
            <mxPoint x="349.5" y="545" as="targetPoint" />
          </mxGeometry>
        </mxCell>
        <mxCell id="kYznNl6-blw-eItZ_B57-19" value="ones" style="ellipse;shape=cloud;whiteSpace=wrap;html=1;" vertex="1" parent="1">
          <mxGeometry x="520" y="350" width="120" height="80" as="geometry" />
        </mxCell>
      </root>
    </mxGraphModel>
  </diagram>
</mxfile>
